PathFileType  4	(X/Y/Z) W:\OA_GaitRetraining\OpenSimAllSubjects\Subject_114\Gait\Week1\Files_W_HJCs\
DataRate	CameraRate	NumFrames	NumMarkers	Units	OrigDataRate	OrigDataStartFrame	OrigNumFrames
  100.0		  100.0		    4		     57		 mm	  100.0	      403	    460
Frame#	Time	r_knee			r_shank(antsup)			r_ankle			r_calc			r_5meta			r_toe			L_knee			L_shank(ant_sup)			L_ankle			L_calc			L_5meta			L_toe			r_mknee			r_mankle			L_mknee			L_mankle			r_sh2			r_sh3			r_sh4			L_sh2			L_sh3			r_thigh1			r_thigh2			r_thigh3			r_thigh4			r_thigh5			L_thigh1			L_thigh2			L_thigh3			L_thigh4			r.ASIS			r.PSIS			L.ASIS			L.PSIS			C7			R_Shoulder			L_Shoulder			R_Sternum			L_Sternum			R_HJC			L_HJC			R_HJC_reg			L_HJC_reg			midPSIS			midASIS			midHJC			midPelvis			R_KJC			L_KJC			R_AJC			L_AJC			R_AJC_proj			R_5meta_proj			R_toe_proj			L_AJC_proj			L_5meta_proj			L_toe_proj			
		X1	Y1	Z1	X2	Y2	Z2	X3	Y3	Z3	X4	Y4	Z4	X5	Y5	Z5	X6	Y6	Z6	X7	Y7	Z7	X8	Y8	Z8	X9	Y9	Z9	X10	Y10	Z10	X11	Y11	Z11	X12	Y12	Z12	X13	Y13	Z13	X14	Y14	Z14	X15	Y15	Z15	X16	Y16	Z16	X17	Y17	Z17	X18	Y18	Z18	X19	Y19	Z19	X20	Y20	Z20	X21	Y21	Z21	X22	Y22	Z22	X23	Y23	Z23	X24	Y24	Z24	X25	Y25	Z25	X26	Y26	Z26	X27	Y27	Z27	X28	Y28	Z28	X29	Y29	Z29	X30	Y30	Z30	X31	Y31	Z31	X32	Y32	Z32	X33	Y33	Z33	X34	Y34	Z34	X35	Y35	Z35	X36	Y36	Z36	X37	Y37	Z37	X38	Y38	Z38	X39	Y39	Z39	X40	Y40	Z40	X41	Y41	Z41	X42	Y42	Z42	X43	Y43	Z43	X44	Y44	Z44	X45	Y45	Z45	X46	Y46	Z46	X47	Y47	Z47	X48	Y48	Z48	X49	Y49	Z49	X50	Y50	Z50	X51	Y51	Z51	X52	Y52	Z52	X53	Y53	Z53	X54	Y54	Z54	X55	Y55	Z55	X56	Y56	Z56	X57	Y57	Z57	

403	4.02000	1164.571	502.282	-322.169	1218.218	435.483	-325.366	1250.007	111.760	-324.400	1194.581	68.347	-372.066	1361.307	40.579	-301.600	1429.537	80.833	-361.659	980.898	487.425	-693.301	990.318	421.055	-667.240	809.095	116.473	-658.924	740.265	76.065	-599.689	893.876	42.238	-692.569	967.856	77.950	-641.301	1220.271	499.981	-461.278	1290.750	128.459	-413.459	990.184	472.978	-541.305	838.649	122.406	-563.651	1236.159	326.830	-313.611	1137.795	421.269	-316.354	1155.692	307.287	-309.124	910.944	454.464	-700.574	878.238	337.373	-708.111	1129.801	780.563	-293.719	1170.817	688.578	-300.179	1129.169	630.905	-290.899	1026.240	735.387	-295.350	1068.361	633.785	-305.277	1106.268	711.420	-705.810	1086.990	586.484	-679.436	1015.421	728.752	-753.409	976.984	603.336	-720.953	1151.079	954.257	-345.175	908.829	1019.065	-465.560	1159.331	949.221	-688.616	905.461	1024.507	-553.723	956.458	1399.018	-521.140	1062.116	1406.557	-409.119	1056.370	1384.147	-649.009	1108.757	1328.722	-505.416	1108.369	1330.790	-552.472	1043.034	864.866	-426.175	1039.642	846.615	-610.584	1063.355	850.306	-398.650	1054.716	864.266	-624.815	907.145	1021.786	-509.641	1155.205	951.739	-516.896	1041.338	855.740	-518.380	1031.175	986.763	-513.269	1192.421	501.132	-391.723	985.541	480.201	-617.303	1270.378	120.109	-368.930	823.872	119.440	-611.288	1270.378	0.000	-368.930	1361.307	0.000	-301.600	1429.537	0.000	-361.659	823.872	0.000	-611.288	893.876	0.000	-692.569	967.856	0.000	-641.301
404	4.03000	1164.767	502.307	-322.155	1218.226	435.743	-325.166	1249.916	111.575	-324.366	1194.650	68.355	-372.061	1361.253	40.513	-301.625	1429.642	81.053	-361.635	980.994	487.339	-693.215	990.135	421.044	-667.333	809.194	116.453	-658.866	740.271	76.016	-599.687	893.897	42.302	-692.601	967.878	77.969	-641.338	1220.388	500.056	-461.143	1290.727	128.495	-413.433	990.157	472.251	-541.851	838.691	122.533	-563.534	1236.228	326.731	-313.568	1138.001	421.468	-316.198	1155.837	307.371	-309.060	910.984	454.357	-700.496	878.223	337.387	-708.101	1129.958	780.578	-293.758	1170.965	688.577	-300.181	1129.383	630.901	-290.851	1026.305	735.367	-295.256	1068.521	633.886	-305.123	1106.200	711.312	-705.871	1086.996	586.415	-679.422	1015.347	728.821	-753.441	976.953	603.324	-720.959	1151.175	954.211	-345.219	908.931	1019.020	-465.467	1159.374	949.177	-688.632	905.550	1024.438	-553.716	956.470	1399.065	-521.148	1062.151	1406.505	-409.123	1056.367	1384.099	-649.049	1109.156	1329.318	-504.805	1108.375	1330.759	-552.446	1043.140	864.814	-426.169	1039.705	846.565	-610.578	1063.427	850.327	-398.644	1054.762	864.212	-624.794	907.240	1021.729	-509.591	1155.275	951.694	-516.926	1041.422	855.689	-518.374	1031.257	986.711	-513.259	1192.578	501.181	-391.649	985.576	479.795	-617.533	1270.321	120.035	-368.899	823.942	119.493	-611.200	1270.321	0.000	-368.899	1361.253	0.000	-301.625	1429.642	0.000	-361.635	823.942	0.000	-611.200	893.897	0.000	-692.601	967.878	0.000	-641.338
405	4.04000	1164.916	502.275	-322.124	1218.392	435.737	-325.212	1250.019	111.674	-324.390	1194.618	68.249	-372.072	1361.248	40.652	-301.503	1429.589	80.893	-361.710	981.084	487.280	-693.104	990.137	421.019	-667.308	809.068	116.407	-658.851	740.233	75.953	-599.691	893.925	42.344	-692.591	967.901	78.027	-641.311	1220.522	500.015	-461.165	1290.707	128.473	-413.466	990.336	472.658	-541.378	838.643	122.584	-563.443	1236.299	326.818	-313.481	1138.035	421.520	-316.142	1155.963	307.379	-308.951	910.938	454.399	-700.674	878.285	337.344	-708.089	1130.201	780.674	-293.764	1171.113	688.628	-300.225	1129.524	630.935	-290.833	1026.434	735.352	-295.331	1068.757	634.076	-305.022	1106.195	711.307	-705.870	1086.950	586.379	-679.434	1015.442	728.703	-753.431	976.932	603.124	-720.876	1151.311	954.194	-345.253	908.983	1019.042	-465.487	1159.231	949.058	-688.632	905.597	1024.401	-553.661	956.495	1399.036	-521.121	1062.172	1406.486	-409.170	1056.436	1384.064	-649.008	1108.757	1328.722	-505.416	1108.419	1330.774	-552.431	1043.175	864.806	-426.128	1039.640	846.487	-610.528	1063.408	850.378	-398.599	1054.724	864.123	-624.732	907.290	1021.721	-509.574	1155.271	951.626	-516.942	1041.407	855.647	-518.328	1031.281	986.673	-513.258	1192.719	501.145	-391.644	985.710	479.969	-617.241	1270.363	120.073	-368.928	823.856	119.496	-611.147	1270.363	0.000	-368.928	1361.248	0.000	-301.503	1429.589	0.000	-361.710	823.856	0.000	-611.147	893.925	0.000	-692.591	967.901	0.000	-641.311
406	4.05000	1165.018	502.288	-322.056	1218.531	435.563	-325.156	1250.021	111.766	-324.323	1194.636	68.286	-372.041	1361.245	40.804	-301.398	1429.556	81.031	-361.587	981.214	487.212	-693.074	990.236	420.804	-667.229	809.031	116.405	-658.940	740.261	75.919	-599.670	893.866	42.242	-692.571	967.856	78.034	-641.287	1220.566	500.025	-461.102	1290.756	128.485	-413.436	990.474	472.783	-541.167	838.576	122.464	-563.535	1236.345	326.746	-313.483	1138.146	421.470	-316.065	1155.981	307.404	-308.921	911.030	454.276	-700.322	878.298	337.280	-708.109	1130.450	780.712	-293.730	1171.422	688.751	-300.190	1129.884	631.043	-290.723	1026.693	735.662	-294.901	1068.910	633.996	-304.982	1106.217	711.314	-705.845	1086.981	586.374	-679.403	1015.401	728.736	-753.458	976.900	603.169	-720.868	1151.425	954.122	-345.334	909.024	1019.036	-465.420	1159.175	948.935	-688.630	905.740	1024.291	-553.480	956.643	1398.905	-521.067	1062.206	1406.446	-409.240	1056.369	1383.945	-649.022	1108.757	1328.722	-505.416	1108.507	1330.774	-552.378	1043.258	864.741	-426.072	1039.618	846.392	-610.467	1063.257	850.503	-398.650	1054.825	863.995	-624.750	907.382	1021.663	-509.450	1155.300	951.529	-516.982	1041.438	855.566	-518.270	1031.341	986.596	-513.216	1192.792	501.157	-391.579	985.844	479.997	-617.120	1270.388	120.125	-368.879	823.803	119.435	-611.238	1270.388	0.000	-368.879	1361.245	0.000	-301.398	1429.556	0.000	-361.587	823.803	0.000	-611.238	893.866	0.000	-692.571	967.856	0.000	-641.287
